<?xml version="1.0" encoding="utf-8" standalone="no"?>
<!DOCTYPE svg PUBLIC "-//W3C//DTD SVG 1.1//EN"
  "http://www.w3.org/Graphics/SVG/1.1/DTD/svg11.dtd">
<!-- Created with matplotlib (http://matplotlib.org/) -->
<svg height="345.6pt" version="1.1" viewBox="0 0 460.8 345.6" width="460.8pt" xmlns="http://www.w3.org/2000/svg" xmlns:xlink="http://www.w3.org/1999/xlink">
 <defs>
  <style type="text/css">
*{stroke-linecap:butt;stroke-linejoin:round;}
  </style>
 </defs>
 <g id="figure_1">
  <g id="patch_1">
   <path d="M 0 345.6 
L 460.8 345.6 
L 460.8 0 
L 0 0 
z
" style="fill:#ffffff;"/>
  </g>
  <g id="axes_1">
   <g id="matplotlib.axis_1"/>
   <g id="matplotlib.axis_2"/>
   <g id="patch_2">
    <path d="M 236.16 41.472 
Q 236.16 41.472 236.16 41.472 
" style="fill:none;stroke:#000000;stroke-linecap:round;"/>
   </g>
   <g id="text_1">
    <g id="patch_3">
     <path d="M 212.180312 48.561063 
L 212.930312 49.311063 
L 213.704635 48.561063 
L 214.478958 47.811063 
L 215.253281 48.561063 
L 216.027604 49.311063 
L 216.801927 48.561063 
L 217.57625 47.811063 
L 218.350573 48.561063 
L 219.124896 49.311063 
L 219.899219 48.561063 
L 220.673542 47.811063 
L 221.447865 48.561063 
L 222.222187 49.311063 
L 222.99651 48.561063 
L 223.770833 47.811063 
L 224.545156 48.561063 
L 225.319479 49.311063 
L 226.093802 48.561063 
L 226.868125 47.811063 
L 227.642448 48.561063 
L 228.416771 49.311063 
L 229.191094 48.561063 
L 229.965417 47.811063 
L 230.73974 48.561063 
L 231.514062 49.311063 
L 232.288385 48.561063 
L 233.062708 47.811063 
L 233.837031 48.561063 
L 234.611354 49.311063 
L 235.385677 48.561063 
L 236.16 47.811063 
L 236.934323 48.561063 
L 237.708646 49.311063 
L 238.482969 48.561063 
L 239.257292 47.811063 
L 240.031615 48.561063 
L 240.805937 49.311063 
L 241.58026 48.561063 
L 242.354583 47.811063 
L 243.128906 48.561063 
L 243.903229 49.311063 
L 244.677552 48.561063 
L 245.451875 47.811063 
L 246.226198 48.561063 
L 247.000521 49.311063 
L 247.774844 48.561063 
L 248.549167 47.811063 
L 249.32349 48.561063 
L 250.097812 49.311063 
L 250.872135 48.561063 
L 251.646458 47.811063 
L 252.420781 48.561063 
L 253.195104 49.311063 
L 253.969427 48.561063 
L 254.74375 47.811063 
L 255.518073 48.561063 
L 256.292396 49.311063 
L 257.066719 48.561063 
L 257.841042 47.811063 
L 258.615365 48.561063 
L 259.389687 49.311063 
L 260.139687 48.561063 
L 260.889687 47.811063 
L 260.139687 47.01868 
L 259.389687 46.226297 
L 260.139687 45.433914 
L 260.889687 44.641531 
L 260.139687 43.849148 
L 259.389687 43.056766 
L 260.139687 42.264383 
L 260.889687 41.472 
L 260.139687 40.679617 
L 259.389687 39.887234 
L 260.139687 39.094852 
L 260.889687 38.302469 
L 260.139687 37.510086 
L 259.389687 36.717703 
L 260.139687 35.92532 
L 260.889687 35.132938 
L 260.139687 34.382938 
L 259.389687 33.632938 
L 258.615365 34.382938 
L 257.841042 35.132938 
L 257.066719 34.382938 
L 256.292396 33.632938 
L 255.518073 34.382938 
L 254.74375 35.132938 
L 253.969427 34.382938 
L 253.195104 33.632938 
L 252.420781 34.382938 
L 251.646458 35.132938 
L 250.872135 34.382938 
L 250.097812 33.632938 
L 249.32349 34.382938 
L 248.549167 35.132938 
L 247.774844 34.382938 
L 247.000521 33.632938 
L 246.226198 34.382938 
L 245.451875 35.132938 
L 244.677552 34.382938 
L 243.903229 33.632938 
L 243.128906 34.382938 
L 242.354583 35.132938 
L 241.58026 34.382938 
L 240.805937 33.632938 
L 240.031615 34.382938 
L 239.257292 35.132938 
L 238.482969 34.382938 
L 237.708646 33.632938 
L 236.934323 34.382938 
L 236.16 35.132938 
L 235.385677 34.382938 
L 234.611354 33.632938 
L 233.837031 34.382938 
L 233.062708 35.132938 
L 232.288385 34.382938 
L 231.514062 33.632938 
L 230.73974 34.382938 
L 229.965417 35.132938 
L 229.191094 34.382938 
L 228.416771 33.632938 
L 227.642448 34.382938 
L 226.868125 35.132938 
L 226.093802 34.382938 
L 225.319479 33.632938 
L 224.545156 34.382938 
L 223.770833 35.132938 
L 222.99651 34.382938 
L 222.222187 33.632938 
L 221.447865 34.382938 
L 220.673542 35.132938 
L 219.899219 34.382938 
L 219.124896 33.632938 
L 218.350573 34.382938 
L 217.57625 35.132938 
L 216.801927 34.382938 
L 216.027604 33.632938 
L 215.253281 34.382938 
L 214.478958 35.132938 
L 213.704635 34.382938 
L 212.930312 33.632938 
L 212.180312 34.382938 
L 211.430312 35.132938 
L 212.180312 35.92532 
L 212.930312 36.717703 
L 212.180312 37.510086 
L 211.430312 38.302469 
L 212.180312 39.094852 
L 212.930312 39.887234 
L 212.180312 40.679617 
L 211.430312 41.472 
L 212.180312 42.264383 
L 212.930312 43.056766 
L 212.180312 43.849148 
L 211.430312 44.641531 
L 212.180312 45.433914 
L 212.930312 46.226297 
L 212.180312 47.01868 
L 211.430312 47.811063 
z
" style="fill:#cccccc;stroke:#000000;stroke-linejoin:miter;"/>
    </g>
    <!-- tearRate -->
    <defs>
     <path d="M 18.3125 70.21875 
L 18.3125 54.6875 
L 36.8125 54.6875 
L 36.8125 47.703125 
L 18.3125 47.703125 
L 18.3125 18.015625 
Q 18.3125 11.328125 20.140625 9.421875 
Q 21.96875 7.515625 27.59375 7.515625 
L 36.8125 7.515625 
L 36.8125 0 
L 27.59375 0 
Q 17.1875 0 13.234375 3.875 
Q 9.28125 7.765625 9.28125 18.015625 
L 9.28125 47.703125 
L 2.6875 47.703125 
L 2.6875 54.6875 
L 9.28125 54.6875 
L 9.28125 70.21875 
z
" id="DejaVuSans-74"/>
     <path d="M 56.203125 29.59375 
L 56.203125 25.203125 
L 14.890625 25.203125 
Q 15.484375 15.921875 20.484375 11.0625 
Q 25.484375 6.203125 34.421875 6.203125 
Q 39.59375 6.203125 44.453125 7.46875 
Q 49.3125 8.734375 54.109375 11.28125 
L 54.109375 2.78125 
Q 49.265625 0.734375 44.1875 -0.34375 
Q 39.109375 -1.421875 33.890625 -1.421875 
Q 20.796875 -1.421875 13.15625 6.1875 
Q 5.515625 13.8125 5.515625 26.8125 
Q 5.515625 40.234375 12.765625 48.109375 
Q 20.015625 56 32.328125 56 
Q 43.359375 56 49.78125 48.890625 
Q 56.203125 41.796875 56.203125 29.59375 
z
M 47.21875 32.234375 
Q 47.125 39.59375 43.09375 43.984375 
Q 39.0625 48.390625 32.421875 48.390625 
Q 24.90625 48.390625 20.390625 44.140625 
Q 15.875 39.890625 15.1875 32.171875 
z
" id="DejaVuSans-65"/>
     <path d="M 34.28125 27.484375 
Q 23.390625 27.484375 19.1875 25 
Q 14.984375 22.515625 14.984375 16.5 
Q 14.984375 11.71875 18.140625 8.90625 
Q 21.296875 6.109375 26.703125 6.109375 
Q 34.1875 6.109375 38.703125 11.40625 
Q 43.21875 16.703125 43.21875 25.484375 
L 43.21875 27.484375 
z
M 52.203125 31.203125 
L 52.203125 0 
L 43.21875 0 
L 43.21875 8.296875 
Q 40.140625 3.328125 35.546875 0.953125 
Q 30.953125 -1.421875 24.3125 -1.421875 
Q 15.921875 -1.421875 10.953125 3.296875 
Q 6 8.015625 6 15.921875 
Q 6 25.140625 12.171875 29.828125 
Q 18.359375 34.515625 30.609375 34.515625 
L 43.21875 34.515625 
L 43.21875 35.40625 
Q 43.21875 41.609375 39.140625 45 
Q 35.0625 48.390625 27.6875 48.390625 
Q 23 48.390625 18.546875 47.265625 
Q 14.109375 46.140625 10.015625 43.890625 
L 10.015625 52.203125 
Q 14.9375 54.109375 19.578125 55.046875 
Q 24.21875 56 28.609375 56 
Q 40.484375 56 46.34375 49.84375 
Q 52.203125 43.703125 52.203125 31.203125 
z
" id="DejaVuSans-61"/>
     <path d="M 41.109375 46.296875 
Q 39.59375 47.171875 37.8125 47.578125 
Q 36.03125 48 33.890625 48 
Q 26.265625 48 22.1875 43.046875 
Q 18.109375 38.09375 18.109375 28.8125 
L 18.109375 0 
L 9.078125 0 
L 9.078125 54.6875 
L 18.109375 54.6875 
L 18.109375 46.1875 
Q 20.953125 51.171875 25.484375 53.578125 
Q 30.03125 56 36.53125 56 
Q 37.453125 56 38.578125 55.875 
Q 39.703125 55.765625 41.0625 55.515625 
z
" id="DejaVuSans-72"/>
     <path d="M 44.390625 34.1875 
Q 47.5625 33.109375 50.5625 29.59375 
Q 53.5625 26.078125 56.59375 19.921875 
L 66.609375 0 
L 56 0 
L 46.6875 18.703125 
Q 43.0625 26.03125 39.671875 28.421875 
Q 36.28125 30.8125 30.421875 30.8125 
L 19.671875 30.8125 
L 19.671875 0 
L 9.8125 0 
L 9.8125 72.90625 
L 32.078125 72.90625 
Q 44.578125 72.90625 50.734375 67.671875 
Q 56.890625 62.453125 56.890625 51.90625 
Q 56.890625 45.015625 53.6875 40.46875 
Q 50.484375 35.9375 44.390625 34.1875 
z
M 19.671875 64.796875 
L 19.671875 38.921875 
L 32.078125 38.921875 
Q 39.203125 38.921875 42.84375 42.21875 
Q 46.484375 45.515625 46.484375 51.90625 
Q 46.484375 58.296875 42.84375 61.546875 
Q 39.203125 64.796875 32.078125 64.796875 
z
" id="DejaVuSans-52"/>
    </defs>
    <g transform="translate(214.430312 44.231375)scale(0.1 -0.1)">
     <use xlink:href="#DejaVuSans-74"/>
     <use x="39.208984" xlink:href="#DejaVuSans-65"/>
     <use x="100.732422" xlink:href="#DejaVuSans-61"/>
     <use x="162.011719" xlink:href="#DejaVuSans-72"/>
     <use x="203.125" xlink:href="#DejaVuSans-52"/>
     <use x="272.576172" xlink:href="#DejaVuSans-61"/>
     <use x="333.855469" xlink:href="#DejaVuSans-74"/>
     <use x="373.064453" xlink:href="#DejaVuSans-65"/>
    </g>
   </g>
   <g id="patch_4">
    <path d="M 98.453834 99.191984 
Q 165.870479 70.93408 234.318242 42.243979 
" style="fill:none;stroke:#000000;stroke-linecap:round;"/>
    <path d="M 102.916014 99.490231 
L 98.453834 99.191984 
L 101.36974 95.801188 
" style="fill:none;stroke:#000000;stroke-linecap:round;"/>
   </g>
   <g id="text_2">
    <g id="patch_5">
     <path d="M 52.2025 114.339063 
C 53.7025 115.839063 101.1775 115.839063 102.6775 114.339063 
C 104.1775 112.839063 104.1775 103.160938 102.6775 101.660938 
C 101.1775 100.160938 53.7025 100.160938 52.2025 101.660938 
C 50.7025 103.160938 50.7025 112.839063 52.2025 114.339063 
z
" style="fill:#cccccc;stroke:#000000;stroke-linejoin:miter;"/>
    </g>
    <!-- no lenses -->
    <defs>
     <path d="M 54.890625 33.015625 
L 54.890625 0 
L 45.90625 0 
L 45.90625 32.71875 
Q 45.90625 40.484375 42.875 44.328125 
Q 39.84375 48.1875 33.796875 48.1875 
Q 26.515625 48.1875 22.3125 43.546875 
Q 18.109375 38.921875 18.109375 30.90625 
L 18.109375 0 
L 9.078125 0 
L 9.078125 54.6875 
L 18.109375 54.6875 
L 18.109375 46.1875 
Q 21.34375 51.125 25.703125 53.5625 
Q 30.078125 56 35.796875 56 
Q 45.21875 56 50.046875 50.171875 
Q 54.890625 44.34375 54.890625 33.015625 
z
" id="DejaVuSans-6e"/>
     <path d="M 30.609375 48.390625 
Q 23.390625 48.390625 19.1875 42.75 
Q 14.984375 37.109375 14.984375 27.296875 
Q 14.984375 17.484375 19.15625 11.84375 
Q 23.34375 6.203125 30.609375 6.203125 
Q 37.796875 6.203125 41.984375 11.859375 
Q 46.1875 17.53125 46.1875 27.296875 
Q 46.1875 37.015625 41.984375 42.703125 
Q 37.796875 48.390625 30.609375 48.390625 
z
M 30.609375 56 
Q 42.328125 56 49.015625 48.375 
Q 55.71875 40.765625 55.71875 27.296875 
Q 55.71875 13.875 49.015625 6.21875 
Q 42.328125 -1.421875 30.609375 -1.421875 
Q 18.84375 -1.421875 12.171875 6.21875 
Q 5.515625 13.875 5.515625 27.296875 
Q 5.515625 40.765625 12.171875 48.375 
Q 18.84375 56 30.609375 56 
z
" id="DejaVuSans-6f"/>
     <path id="DejaVuSans-20"/>
     <path d="M 9.421875 75.984375 
L 18.40625 75.984375 
L 18.40625 0 
L 9.421875 0 
z
" id="DejaVuSans-6c"/>
     <path d="M 44.28125 53.078125 
L 44.28125 44.578125 
Q 40.484375 46.53125 36.375 47.5 
Q 32.28125 48.484375 27.875 48.484375 
Q 21.1875 48.484375 17.84375 46.4375 
Q 14.5 44.390625 14.5 40.28125 
Q 14.5 37.15625 16.890625 35.375 
Q 19.28125 33.59375 26.515625 31.984375 
L 29.59375 31.296875 
Q 39.15625 29.25 43.1875 25.515625 
Q 47.21875 21.78125 47.21875 15.09375 
Q 47.21875 7.46875 41.1875 3.015625 
Q 35.15625 -1.421875 24.609375 -1.421875 
Q 20.21875 -1.421875 15.453125 -0.5625 
Q 10.6875 0.296875 5.421875 2 
L 5.421875 11.28125 
Q 10.40625 8.6875 15.234375 7.390625 
Q 20.0625 6.109375 24.8125 6.109375 
Q 31.15625 6.109375 34.5625 8.28125 
Q 37.984375 10.453125 37.984375 14.40625 
Q 37.984375 18.0625 35.515625 20.015625 
Q 33.0625 21.96875 24.703125 23.78125 
L 21.578125 24.515625 
Q 13.234375 26.265625 9.515625 29.90625 
Q 5.8125 33.546875 5.8125 39.890625 
Q 5.8125 47.609375 11.28125 51.796875 
Q 16.75 56 26.8125 56 
Q 31.78125 56 36.171875 55.265625 
Q 40.578125 54.546875 44.28125 53.078125 
z
" id="DejaVuSans-73"/>
    </defs>
    <g transform="translate(53.7025 110.759375)scale(0.1 -0.1)">
     <use xlink:href="#DejaVuSans-6e"/>
     <use x="63.378906" xlink:href="#DejaVuSans-6f"/>
     <use x="124.560547" xlink:href="#DejaVuSans-20"/>
     <use x="156.347656" xlink:href="#DejaVuSans-6c"/>
     <use x="184.130859" xlink:href="#DejaVuSans-65"/>
     <use x="245.654297" xlink:href="#DejaVuSans-6e"/>
     <use x="309.033203" xlink:href="#DejaVuSans-73"/>
     <use x="361.132812" xlink:href="#DejaVuSans-65"/>
     <use x="422.65625" xlink:href="#DejaVuSans-73"/>
    </g>
   </g>
   <g id="text_3">
    <!-- reduced -->
    <defs>
     <path d="M 45.40625 46.390625 
L 45.40625 75.984375 
L 54.390625 75.984375 
L 54.390625 0 
L 45.40625 0 
L 45.40625 8.203125 
Q 42.578125 3.328125 38.25 0.953125 
Q 33.9375 -1.421875 27.875 -1.421875 
Q 17.96875 -1.421875 11.734375 6.484375 
Q 5.515625 14.40625 5.515625 27.296875 
Q 5.515625 40.1875 11.734375 48.09375 
Q 17.96875 56 27.875 56 
Q 33.9375 56 38.25 53.625 
Q 42.578125 51.265625 45.40625 46.390625 
z
M 14.796875 27.296875 
Q 14.796875 17.390625 18.875 11.75 
Q 22.953125 6.109375 30.078125 6.109375 
Q 37.203125 6.109375 41.296875 11.75 
Q 45.40625 17.390625 45.40625 27.296875 
Q 45.40625 37.203125 41.296875 42.84375 
Q 37.203125 48.484375 30.078125 48.484375 
Q 22.953125 48.484375 18.875 42.84375 
Q 14.796875 37.203125 14.796875 27.296875 
z
" id="DejaVuSans-64"/>
     <path d="M 8.5 21.578125 
L 8.5 54.6875 
L 17.484375 54.6875 
L 17.484375 21.921875 
Q 17.484375 14.15625 20.5 10.265625 
Q 23.53125 6.390625 29.59375 6.390625 
Q 36.859375 6.390625 41.078125 11.03125 
Q 45.3125 15.671875 45.3125 23.6875 
L 45.3125 54.6875 
L 54.296875 54.6875 
L 54.296875 0 
L 45.3125 0 
L 45.3125 8.40625 
Q 42.046875 3.421875 37.71875 1 
Q 33.40625 -1.421875 27.6875 -1.421875 
Q 18.265625 -1.421875 13.375 4.4375 
Q 8.5 10.296875 8.5 21.578125 
z
M 31.109375 56 
z
" id="DejaVuSans-75"/>
     <path d="M 48.78125 52.59375 
L 48.78125 44.1875 
Q 44.96875 46.296875 41.140625 47.34375 
Q 37.3125 48.390625 33.40625 48.390625 
Q 24.65625 48.390625 19.8125 42.84375 
Q 14.984375 37.3125 14.984375 27.296875 
Q 14.984375 17.28125 19.8125 11.734375 
Q 24.65625 6.203125 33.40625 6.203125 
Q 37.3125 6.203125 41.140625 7.25 
Q 44.96875 8.296875 48.78125 10.40625 
L 48.78125 2.09375 
Q 45.015625 0.34375 40.984375 -0.53125 
Q 36.96875 -1.421875 32.421875 -1.421875 
Q 20.0625 -1.421875 12.78125 6.34375 
Q 5.515625 14.109375 5.515625 27.296875 
Q 5.515625 40.671875 12.859375 48.328125 
Q 20.21875 56 33.015625 56 
Q 37.15625 56 41.109375 55.140625 
Q 45.0625 54.296875 48.78125 52.59375 
z
" id="DejaVuSans-63"/>
    </defs>
    <g transform="translate(140.449171 87.362408)rotate(-30)scale(0.1 -0.1)">
     <use xlink:href="#DejaVuSans-72"/>
     <use x="41.082031" xlink:href="#DejaVuSans-65"/>
     <use x="102.605469" xlink:href="#DejaVuSans-64"/>
     <use x="166.082031" xlink:href="#DejaVuSans-75"/>
     <use x="229.460938" xlink:href="#DejaVuSans-63"/>
     <use x="284.441406" xlink:href="#DejaVuSans-65"/>
     <use x="345.964844" xlink:href="#DejaVuSans-64"/>
    </g>
   </g>
   <g id="text_4">
    <!-- normal -->
    <defs>
     <path d="M 52 44.1875 
Q 55.375 50.25 60.0625 53.125 
Q 64.75 56 71.09375 56 
Q 79.640625 56 84.28125 50.015625 
Q 88.921875 44.046875 88.921875 33.015625 
L 88.921875 0 
L 79.890625 0 
L 79.890625 32.71875 
Q 79.890625 40.578125 77.09375 44.375 
Q 74.3125 48.1875 68.609375 48.1875 
Q 61.625 48.1875 57.5625 43.546875 
Q 53.515625 38.921875 53.515625 30.90625 
L 53.515625 0 
L 44.484375 0 
L 44.484375 32.71875 
Q 44.484375 40.625 41.703125 44.40625 
Q 38.921875 48.1875 33.109375 48.1875 
Q 26.21875 48.1875 22.15625 43.53125 
Q 18.109375 38.875 18.109375 30.90625 
L 18.109375 0 
L 9.078125 0 
L 9.078125 54.6875 
L 18.109375 54.6875 
L 18.109375 46.1875 
Q 21.1875 51.21875 25.484375 53.609375 
Q 29.78125 56 35.6875 56 
Q 41.65625 56 45.828125 52.96875 
Q 50 49.953125 52 44.1875 
z
" id="DejaVuSans-6d"/>
    </defs>
    <g transform="translate(232.212228 85.928814)rotate(-30)scale(0.1 -0.1)">
     <use xlink:href="#DejaVuSans-6e"/>
     <use x="63.378906" xlink:href="#DejaVuSans-6f"/>
     <use x="124.560547" xlink:href="#DejaVuSans-72"/>
     <use x="165.658203" xlink:href="#DejaVuSans-6d"/>
     <use x="263.070312" xlink:href="#DejaVuSans-61"/>
     <use x="324.349609" xlink:href="#DejaVuSans-6c"/>
    </g>
   </g>
   <g id="patch_6">
    <path d="M 252.76364 97.147754 
Q 244.907176 70.803257 236.731198 43.387355 
" style="fill:none;stroke:#000000;stroke-linecap:round;"/>
    <path d="M 253.537097 92.74301 
L 252.76364 97.147754 
L 249.70392 93.886142 
" style="fill:none;stroke:#000000;stroke-linecap:round;"/>
   </g>
   <g id="text_5">
    <g id="patch_7">
     <path d="M 224.920312 115.089063 
L 225.670312 115.839063 
L 226.428555 115.089063 
L 227.186797 114.339063 
L 227.945039 115.089063 
L 228.703281 115.839063 
L 229.461523 115.089063 
L 230.219766 114.339063 
L 230.978008 115.089063 
L 231.73625 115.839063 
L 232.494492 115.089063 
L 233.252734 114.339063 
L 234.010977 115.089063 
L 234.769219 115.839063 
L 235.527461 115.089063 
L 236.285703 114.339063 
L 237.043945 115.089063 
L 237.802188 115.839063 
L 238.56043 115.089063 
L 239.318672 114.339063 
L 240.076914 115.089063 
L 240.835156 115.839063 
L 241.593398 115.089063 
L 242.351641 114.339063 
L 243.109883 115.089063 
L 243.868125 115.839063 
L 244.626367 115.089063 
L 245.384609 114.339063 
L 246.142852 115.089063 
L 246.901094 115.839063 
L 247.659336 115.089063 
L 248.417578 114.339063 
L 249.17582 115.089063 
L 249.934062 115.839063 
L 250.692305 115.089063 
L 251.450547 114.339063 
L 252.208789 115.089063 
L 252.967031 115.839063 
L 253.725273 115.089063 
L 254.483516 114.339063 
L 255.241758 115.089063 
L 256 115.839063 
L 256.758242 115.089063 
L 257.516484 114.339063 
L 258.274727 115.089063 
L 259.032969 115.839063 
L 259.791211 115.089063 
L 260.549453 114.339063 
L 261.307695 115.089063 
L 262.065938 115.839063 
L 262.82418 115.089063 
L 263.582422 114.339063 
L 264.340664 115.089063 
L 265.098906 115.839063 
L 265.857148 115.089063 
L 266.615391 114.339063 
L 267.373633 115.089063 
L 268.131875 115.839063 
L 268.890117 115.089063 
L 269.648359 114.339063 
L 270.406602 115.089063 
L 271.164844 115.839063 
L 271.923086 115.089063 
L 272.681328 114.339063 
L 273.43957 115.089063 
L 274.197812 115.839063 
L 274.956055 115.089063 
L 275.714297 114.339063 
L 276.472539 115.089063 
L 277.230781 115.839063 
L 277.989023 115.089063 
L 278.747266 114.339063 
L 279.505508 115.089063 
L 280.26375 115.839063 
L 281.021992 115.089063 
L 281.780234 114.339063 
L 282.538477 115.089063 
L 283.296719 115.839063 
L 284.054961 115.089063 
L 284.813203 114.339063 
L 285.571445 115.089063 
L 286.329687 115.839063 
L 287.079687 115.089063 
L 287.829687 114.339063 
L 287.079687 113.54668 
L 286.329687 112.754297 
L 287.079687 111.961914 
L 287.829687 111.169531 
L 287.079687 110.377148 
L 286.329687 109.584766 
L 287.079687 108.792383 
L 287.829687 108 
L 287.079687 107.207617 
L 286.329687 106.415234 
L 287.079687 105.622852 
L 287.829687 104.830469 
L 287.079687 104.038086 
L 286.329687 103.245703 
L 287.079687 102.45332 
L 287.829687 101.660938 
L 287.079687 100.910938 
L 286.329687 100.160938 
L 285.571445 100.910938 
L 284.813203 101.660938 
L 284.054961 100.910938 
L 283.296719 100.160938 
L 282.538477 100.910938 
L 281.780234 101.660938 
L 281.021992 100.910938 
L 280.26375 100.160938 
L 279.505508 100.910938 
L 278.747266 101.660938 
L 277.989023 100.910938 
L 277.230781 100.160938 
L 276.472539 100.910938 
L 275.714297 101.660938 
L 274.956055 100.910938 
L 274.197812 100.160938 
L 273.43957 100.910938 
L 272.681328 101.660938 
L 271.923086 100.910938 
L 271.164844 100.160938 
L 270.406602 100.910938 
L 269.648359 101.660938 
L 268.890117 100.910938 
L 268.131875 100.160938 
L 267.373633 100.910938 
L 266.615391 101.660938 
L 265.857148 100.910938 
L 265.098906 100.160938 
L 264.340664 100.910938 
L 263.582422 101.660938 
L 262.82418 100.910938 
L 262.065938 100.160938 
L 261.307695 100.910938 
L 260.549453 101.660938 
L 259.791211 100.910938 
L 259.032969 100.160938 
L 258.274727 100.910938 
L 257.516484 101.660938 
L 256.758242 100.910938 
L 256 100.160938 
L 255.241758 100.910938 
L 254.483516 101.660938 
L 253.725273 100.910938 
L 252.967031 100.160938 
L 252.208789 100.910938 
L 251.450547 101.660938 
L 250.692305 100.910938 
L 249.934062 100.160938 
L 249.17582 100.910938 
L 248.417578 101.660938 
L 247.659336 100.910938 
L 246.901094 100.160938 
L 246.142852 100.910938 
L 245.384609 101.660938 
L 244.626367 100.910938 
L 243.868125 100.160938 
L 243.109883 100.910938 
L 242.351641 101.660938 
L 241.593398 100.910938 
L 240.835156 100.160938 
L 240.076914 100.910938 
L 239.318672 101.660938 
L 238.56043 100.910938 
L 237.802188 100.160938 
L 237.043945 100.910938 
L 236.285703 101.660938 
L 235.527461 100.910938 
L 234.769219 100.160938 
L 234.010977 100.910938 
L 233.252734 101.660938 
L 232.494492 100.910938 
L 231.73625 100.160938 
L 230.978008 100.910938 
L 230.219766 101.660938 
L 229.461523 100.910938 
L 228.703281 100.160938 
L 227.945039 100.910938 
L 227.186797 101.660938 
L 226.428555 100.910938 
L 225.670312 100.160938 
L 224.920312 100.910938 
L 224.170312 101.660938 
L 224.920312 102.45332 
L 225.670312 103.245703 
L 224.920312 104.038086 
L 224.170312 104.830469 
L 224.920312 105.622852 
L 225.670312 106.415234 
L 224.920312 107.207617 
L 224.170312 108 
L 224.920312 108.792383 
L 225.670312 109.584766 
L 224.920312 110.377148 
L 224.170312 111.169531 
L 224.920312 111.961914 
L 225.670312 112.754297 
L 224.920312 113.54668 
L 224.170312 114.339063 
z
" style="fill:#cccccc;stroke:#000000;stroke-linejoin:miter;"/>
    </g>
    <!-- astigmatics -->
    <defs>
     <path d="M 9.421875 54.6875 
L 18.40625 54.6875 
L 18.40625 0 
L 9.421875 0 
z
M 9.421875 75.984375 
L 18.40625 75.984375 
L 18.40625 64.59375 
L 9.421875 64.59375 
z
" id="DejaVuSans-69"/>
     <path d="M 45.40625 27.984375 
Q 45.40625 37.75 41.375 43.109375 
Q 37.359375 48.484375 30.078125 48.484375 
Q 22.859375 48.484375 18.828125 43.109375 
Q 14.796875 37.75 14.796875 27.984375 
Q 14.796875 18.265625 18.828125 12.890625 
Q 22.859375 7.515625 30.078125 7.515625 
Q 37.359375 7.515625 41.375 12.890625 
Q 45.40625 18.265625 45.40625 27.984375 
z
M 54.390625 6.78125 
Q 54.390625 -7.171875 48.1875 -13.984375 
Q 42 -20.796875 29.203125 -20.796875 
Q 24.46875 -20.796875 20.265625 -20.09375 
Q 16.0625 -19.390625 12.109375 -17.921875 
L 12.109375 -9.1875 
Q 16.0625 -11.328125 19.921875 -12.34375 
Q 23.78125 -13.375 27.78125 -13.375 
Q 36.625 -13.375 41.015625 -8.765625 
Q 45.40625 -4.15625 45.40625 5.171875 
L 45.40625 9.625 
Q 42.625 4.78125 38.28125 2.390625 
Q 33.9375 0 27.875 0 
Q 17.828125 0 11.671875 7.65625 
Q 5.515625 15.328125 5.515625 27.984375 
Q 5.515625 40.671875 11.671875 48.328125 
Q 17.828125 56 27.875 56 
Q 33.9375 56 38.28125 53.609375 
Q 42.625 51.21875 45.40625 46.390625 
L 45.40625 54.6875 
L 54.390625 54.6875 
z
" id="DejaVuSans-67"/>
    </defs>
    <g transform="translate(227.170312 110.759375)scale(0.1 -0.1)">
     <use xlink:href="#DejaVuSans-61"/>
     <use x="61.279297" xlink:href="#DejaVuSans-73"/>
     <use x="113.378906" xlink:href="#DejaVuSans-74"/>
     <use x="152.587891" xlink:href="#DejaVuSans-69"/>
     <use x="180.371094" xlink:href="#DejaVuSans-67"/>
     <use x="243.847656" xlink:href="#DejaVuSans-6d"/>
     <use x="341.259766" xlink:href="#DejaVuSans-61"/>
     <use x="402.539062" xlink:href="#DejaVuSans-74"/>
     <use x="441.748047" xlink:href="#DejaVuSans-69"/>
     <use x="469.53125" xlink:href="#DejaVuSans-63"/>
     <use x="524.511719" xlink:href="#DejaVuSans-73"/>
    </g>
   </g>
   <g id="text_6">
    <!-- yes -->
    <defs>
     <path d="M 32.171875 -5.078125 
Q 28.375 -14.84375 24.75 -17.8125 
Q 21.140625 -20.796875 15.09375 -20.796875 
L 7.90625 -20.796875 
L 7.90625 -13.28125 
L 13.1875 -13.28125 
Q 16.890625 -13.28125 18.9375 -11.515625 
Q 21 -9.765625 23.484375 -3.21875 
L 25.09375 0.875 
L 2.984375 54.6875 
L 12.5 54.6875 
L 29.59375 11.921875 
L 46.6875 54.6875 
L 56.203125 54.6875 
z
" id="DejaVuSans-79"/>
    </defs>
    <g transform="translate(210.216687 147.974001)rotate(-30)scale(0.1 -0.1)">
     <use xlink:href="#DejaVuSans-79"/>
     <use x="59.179688" xlink:href="#DejaVuSans-65"/>
     <use x="120.703125" xlink:href="#DejaVuSans-73"/>
    </g>
   </g>
   <g id="patch_8">
    <path d="M 188.521194 164.567918 
Q 221.0658 137.285565 254.467204 109.284953 
" style="fill:none;stroke:#000000;stroke-linecap:round;"/>
    <path d="M 192.871431 163.530882 
L 188.521194 164.567918 
L 190.301707 160.465507 
" style="fill:none;stroke:#000000;stroke-linecap:round;"/>
   </g>
   <g id="text_7">
    <g id="patch_9">
     <path d="M 152.1525 181.617063 
L 152.9025 182.367063 
L 153.644297 181.617063 
L 154.386094 180.867063 
L 155.127891 181.617063 
L 155.869687 182.367063 
L 156.611484 181.617063 
L 157.353281 180.867063 
L 158.095078 181.617063 
L 158.836875 182.367063 
L 159.578672 181.617063 
L 160.320469 180.867063 
L 161.062266 181.617063 
L 161.804063 182.367063 
L 162.545859 181.617063 
L 163.287656 180.867063 
L 164.029453 181.617063 
L 164.77125 182.367063 
L 165.513047 181.617063 
L 166.254844 180.867063 
L 166.996641 181.617063 
L 167.738438 182.367063 
L 168.480234 181.617063 
L 169.222031 180.867063 
L 169.963828 181.617063 
L 170.705625 182.367063 
L 171.447422 181.617063 
L 172.189219 180.867063 
L 172.931016 181.617063 
L 173.672812 182.367063 
L 174.414609 181.617063 
L 175.156406 180.867063 
L 175.898203 181.617063 
L 176.64 182.367063 
L 177.381797 181.617063 
L 178.123594 180.867063 
L 178.865391 181.617063 
L 179.607188 182.367063 
L 180.348984 181.617063 
L 181.090781 180.867063 
L 181.832578 181.617063 
L 182.574375 182.367063 
L 183.316172 181.617063 
L 184.057969 180.867063 
L 184.799766 181.617063 
L 185.541562 182.367063 
L 186.283359 181.617063 
L 187.025156 180.867063 
L 187.766953 181.617063 
L 188.50875 182.367063 
L 189.250547 181.617063 
L 189.992344 180.867063 
L 190.734141 181.617063 
L 191.475938 182.367063 
L 192.217734 181.617063 
L 192.959531 180.867063 
L 193.701328 181.617063 
L 194.443125 182.367063 
L 195.184922 181.617063 
L 195.926719 180.867063 
L 196.668516 181.617063 
L 197.410313 182.367063 
L 198.152109 181.617063 
L 198.893906 180.867063 
L 199.635703 181.617063 
L 200.3775 182.367063 
L 201.1275 181.617063 
L 201.8775 180.867063 
L 201.1275 180.07468 
L 200.3775 179.282297 
L 201.1275 178.489914 
L 201.8775 177.697531 
L 201.1275 176.905148 
L 200.3775 176.112766 
L 201.1275 175.320383 
L 201.8775 174.528 
L 201.1275 173.735617 
L 200.3775 172.943234 
L 201.1275 172.150852 
L 201.8775 171.358469 
L 201.1275 170.566086 
L 200.3775 169.773703 
L 201.1275 168.98132 
L 201.8775 168.188938 
L 201.1275 167.438938 
L 200.3775 166.688938 
L 199.635703 167.438938 
L 198.893906 168.188938 
L 198.152109 167.438938 
L 197.410313 166.688938 
L 196.668516 167.438938 
L 195.926719 168.188938 
L 195.184922 167.438938 
L 194.443125 166.688938 
L 193.701328 167.438938 
L 192.959531 168.188938 
L 192.217734 167.438938 
L 191.475937 166.688938 
L 190.734141 167.438938 
L 189.992344 168.188938 
L 189.250547 167.438938 
L 188.50875 166.688938 
L 187.766953 167.438938 
L 187.025156 168.188938 
L 186.283359 167.438938 
L 185.541562 166.688938 
L 184.799766 167.438938 
L 184.057969 168.188938 
L 183.316172 167.438938 
L 182.574375 166.688938 
L 181.832578 167.438938 
L 181.090781 168.188938 
L 180.348984 167.438938 
L 179.607188 166.688938 
L 178.865391 167.438938 
L 178.123594 168.188938 
L 177.381797 167.438938 
L 176.64 166.688938 
L 175.898203 167.438938 
L 175.156406 168.188938 
L 174.414609 167.438938 
L 173.672812 166.688938 
L 172.931016 167.438938 
L 172.189219 168.188938 
L 171.447422 167.438938 
L 170.705625 166.688938 
L 169.963828 167.438938 
L 169.222031 168.188938 
L 168.480234 167.438938 
L 167.738438 166.688938 
L 166.996641 167.438938 
L 166.254844 168.188938 
L 165.513047 167.438938 
L 164.77125 166.688938 
L 164.029453 167.438938 
L 163.287656 168.188938 
L 162.545859 167.438938 
L 161.804062 166.688938 
L 161.062266 167.438938 
L 160.320469 168.188938 
L 159.578672 167.438938 
L 158.836875 166.688938 
L 158.095078 167.438938 
L 157.353281 168.188938 
L 156.611484 167.438938 
L 155.869687 166.688938 
L 155.127891 167.438938 
L 154.386094 168.188938 
L 153.644297 167.438938 
L 152.9025 166.688938 
L 152.1525 167.438938 
L 151.4025 168.188938 
L 152.1525 168.98132 
L 152.9025 169.773703 
L 152.1525 170.566086 
L 151.4025 171.358469 
L 152.1525 172.150852 
L 152.9025 172.943234 
L 152.1525 173.735617 
L 151.4025 174.528 
L 152.1525 175.320383 
L 152.9025 176.112766 
L 152.1525 176.905148 
L 151.4025 177.697531 
L 152.1525 178.489914 
L 152.9025 179.282297 
L 152.1525 180.07468 
L 151.4025 180.867063 
z
" style="fill:#cccccc;stroke:#000000;stroke-linejoin:miter;"/>
    </g>
    <!-- prescript -->
    <defs>
     <path d="M 18.109375 8.203125 
L 18.109375 -20.796875 
L 9.078125 -20.796875 
L 9.078125 54.6875 
L 18.109375 54.6875 
L 18.109375 46.390625 
Q 20.953125 51.265625 25.265625 53.625 
Q 29.59375 56 35.59375 56 
Q 45.5625 56 51.78125 48.09375 
Q 58.015625 40.1875 58.015625 27.296875 
Q 58.015625 14.40625 51.78125 6.484375 
Q 45.5625 -1.421875 35.59375 -1.421875 
Q 29.59375 -1.421875 25.265625 0.953125 
Q 20.953125 3.328125 18.109375 8.203125 
z
M 48.6875 27.296875 
Q 48.6875 37.203125 44.609375 42.84375 
Q 40.53125 48.484375 33.40625 48.484375 
Q 26.265625 48.484375 22.1875 42.84375 
Q 18.109375 37.203125 18.109375 27.296875 
Q 18.109375 17.390625 22.1875 11.75 
Q 26.265625 6.109375 33.40625 6.109375 
Q 40.53125 6.109375 44.609375 11.75 
Q 48.6875 17.390625 48.6875 27.296875 
z
" id="DejaVuSans-70"/>
    </defs>
    <g transform="translate(154.4025 177.287375)scale(0.1 -0.1)">
     <use xlink:href="#DejaVuSans-70"/>
     <use x="63.476562" xlink:href="#DejaVuSans-72"/>
     <use x="104.558594" xlink:href="#DejaVuSans-65"/>
     <use x="166.082031" xlink:href="#DejaVuSans-73"/>
     <use x="218.181641" xlink:href="#DejaVuSans-63"/>
     <use x="273.162109" xlink:href="#DejaVuSans-72"/>
     <use x="314.275391" xlink:href="#DejaVuSans-69"/>
     <use x="342.058594" xlink:href="#DejaVuSans-70"/>
     <use x="405.535156" xlink:href="#DejaVuSans-74"/>
    </g>
   </g>
   <g id="text_8">
    <!-- hyper -->
    <defs>
     <path d="M 54.890625 33.015625 
L 54.890625 0 
L 45.90625 0 
L 45.90625 32.71875 
Q 45.90625 40.484375 42.875 44.328125 
Q 39.84375 48.1875 33.796875 48.1875 
Q 26.515625 48.1875 22.3125 43.546875 
Q 18.109375 38.921875 18.109375 30.90625 
L 18.109375 0 
L 9.078125 0 
L 9.078125 75.984375 
L 18.109375 75.984375 
L 18.109375 46.1875 
Q 21.34375 51.125 25.703125 53.5625 
Q 30.078125 56 35.796875 56 
Q 45.21875 56 50.046875 50.171875 
Q 54.890625 44.34375 54.890625 33.015625 
z
" id="DejaVuSans-68"/>
    </defs>
    <g transform="translate(155.599152 217.398876)rotate(-30)scale(0.1 -0.1)">
     <use xlink:href="#DejaVuSans-68"/>
     <use x="63.378906" xlink:href="#DejaVuSans-79"/>
     <use x="122.558594" xlink:href="#DejaVuSans-70"/>
     <use x="186.035156" xlink:href="#DejaVuSans-65"/>
     <use x="247.558594" xlink:href="#DejaVuSans-72"/>
    </g>
   </g>
   <g id="patch_10">
    <path d="M 160.012932 230.282313 
Q 167.880714 203.899863 176.068011 176.446007 
" style="fill:none;stroke:#000000;stroke-linecap:round;"/>
    <path d="M 163.072652 227.020701 
L 160.012932 230.282313 
L 159.239475 225.87757 
" style="fill:none;stroke:#000000;stroke-linecap:round;"/>
   </g>
   <g id="text_9">
    <g id="patch_11">
     <path d="M 145.235156 248.145062 
L 145.985156 248.895062 
L 146.757645 248.145062 
L 147.530134 247.395062 
L 148.302623 248.145062 
L 149.075112 248.895062 
L 149.8476 248.145062 
L 150.620089 247.395062 
L 151.392578 248.145062 
L 152.165067 248.895062 
L 152.937556 248.145062 
L 153.710045 247.395062 
L 154.482533 248.145062 
L 155.255022 248.895062 
L 156.027511 248.145062 
L 156.8 247.395062 
L 157.572489 248.145062 
L 158.344978 248.895062 
L 159.117467 248.145062 
L 159.889955 247.395062 
L 160.662444 248.145062 
L 161.434933 248.895062 
L 162.207422 248.145062 
L 162.979911 247.395062 
L 163.7524 248.145062 
L 164.524888 248.895062 
L 165.297377 248.145062 
L 166.069866 247.395062 
L 166.842355 248.145062 
L 167.614844 248.895062 
L 168.364844 248.145062 
L 169.114844 247.395062 
L 168.364844 246.60268 
L 167.614844 245.810297 
L 168.364844 245.017914 
L 169.114844 244.225531 
L 168.364844 243.433148 
L 167.614844 242.640766 
L 168.364844 241.848383 
L 169.114844 241.056 
L 168.364844 240.263617 
L 167.614844 239.471234 
L 168.364844 238.678852 
L 169.114844 237.886469 
L 168.364844 237.094086 
L 167.614844 236.301703 
L 168.364844 235.50932 
L 169.114844 234.716938 
L 168.364844 233.966938 
L 167.614844 233.216938 
L 166.842355 233.966938 
L 166.069866 234.716938 
L 165.297377 233.966938 
L 164.524888 233.216938 
L 163.7524 233.966938 
L 162.979911 234.716938 
L 162.207422 233.966938 
L 161.434933 233.216938 
L 160.662444 233.966938 
L 159.889955 234.716938 
L 159.117467 233.966938 
L 158.344978 233.216938 
L 157.572489 233.966938 
L 156.8 234.716938 
L 156.027511 233.966938 
L 155.255022 233.216938 
L 154.482533 233.966938 
L 153.710045 234.716938 
L 152.937556 233.966938 
L 152.165067 233.216938 
L 151.392578 233.966938 
L 150.620089 234.716938 
L 149.8476 233.966938 
L 149.075112 233.216938 
L 148.302623 233.966938 
L 147.530134 234.716938 
L 146.757645 233.966938 
L 145.985156 233.216938 
L 145.235156 233.966938 
L 144.485156 234.716938 
L 145.235156 235.50932 
L 145.985156 236.301703 
L 145.235156 237.094086 
L 144.485156 237.886469 
L 145.235156 238.678852 
L 145.985156 239.471234 
L 145.235156 240.263617 
L 144.485156 241.056 
L 145.235156 241.848383 
L 145.985156 242.640766 
L 145.235156 243.433148 
L 144.485156 244.225531 
L 145.235156 245.017914 
L 145.985156 245.810297 
L 145.235156 246.60268 
L 144.485156 247.395062 
z
" style="fill:#cccccc;stroke:#000000;stroke-linejoin:miter;"/>
    </g>
    <!-- age -->
    <g transform="translate(147.485156 243.815375)scale(0.1 -0.1)">
     <use xlink:href="#DejaVuSans-61"/>
     <use x="61.279297" xlink:href="#DejaVuSans-67"/>
     <use x="124.755859" xlink:href="#DejaVuSans-65"/>
    </g>
   </g>
   <g id="patch_12">
    <path d="M 123.439289 296.988999 
Q 139.320685 270.362045 155.77479 242.774881 
" style="fill:none;stroke:#000000;stroke-linecap:round;"/>
    <path d="M 127.205951 294.578137 
L 123.439289 296.988999 
L 123.770596 292.529152 
" style="fill:none;stroke:#000000;stroke-linecap:round;"/>
   </g>
   <g id="text_10">
    <g id="patch_13">
     <path d="M 91.8825 313.923062 
C 93.3825 315.423062 140.8575 315.423062 142.3575 313.923062 
C 143.8575 312.423062 143.8575 302.744937 142.3575 301.244937 
C 140.8575 299.744937 93.3825 299.744937 91.8825 301.244937 
C 90.3825 302.744937 90.3825 312.423062 91.8825 313.923062 
z
" style="fill:#cccccc;stroke:#000000;stroke-linejoin:miter;"/>
    </g>
    <!-- no lenses -->
    <g transform="translate(93.3825 310.343375)scale(0.1 -0.1)">
     <use xlink:href="#DejaVuSans-6e"/>
     <use x="63.378906" xlink:href="#DejaVuSans-6f"/>
     <use x="124.560547" xlink:href="#DejaVuSans-20"/>
     <use x="156.347656" xlink:href="#DejaVuSans-6c"/>
     <use x="184.130859" xlink:href="#DejaVuSans-65"/>
     <use x="245.654297" xlink:href="#DejaVuSans-6e"/>
     <use x="309.033203" xlink:href="#DejaVuSans-73"/>
     <use x="361.132812" xlink:href="#DejaVuSans-65"/>
     <use x="422.65625" xlink:href="#DejaVuSans-73"/>
    </g>
   </g>
   <g id="text_11">
    <!-- pre -->
    <g transform="translate(131.147617 280.862033)rotate(-30)scale(0.1 -0.1)">
     <use xlink:href="#DejaVuSans-70"/>
     <use x="63.476562" xlink:href="#DejaVuSans-72"/>
     <use x="104.558594" xlink:href="#DejaVuSans-65"/>
    </g>
   </g>
   <g id="patch_14">
    <path d="M 156.8 296.55213 
Q 156.8 270.363436 156.8 243.056708 
" style="fill:none;stroke:#000000;stroke-linecap:round;"/>
    <path d="M 158.8 292.55213 
L 156.8 296.55213 
L 154.8 292.55213 
" style="fill:none;stroke:#000000;stroke-linecap:round;"/>
   </g>
   <g id="text_12">
    <g id="patch_15">
     <path d="M 131.5625 313.923062 
C 133.0625 315.423062 180.5375 315.423062 182.0375 313.923062 
C 183.5375 312.423062 183.5375 302.744937 182.0375 301.244937 
C 180.5375 299.744937 133.0625 299.744937 131.5625 301.244937 
C 130.0625 302.744937 130.0625 312.423062 131.5625 313.923062 
z
" style="fill:#cccccc;stroke:#000000;stroke-linejoin:miter;"/>
    </g>
    <!-- no lenses -->
    <g transform="translate(133.0625 310.343375)scale(0.1 -0.1)">
     <use xlink:href="#DejaVuSans-6e"/>
     <use x="63.378906" xlink:href="#DejaVuSans-6f"/>
     <use x="124.560547" xlink:href="#DejaVuSans-20"/>
     <use x="156.347656" xlink:href="#DejaVuSans-6c"/>
     <use x="184.130859" xlink:href="#DejaVuSans-65"/>
     <use x="245.654297" xlink:href="#DejaVuSans-6e"/>
     <use x="309.033203" xlink:href="#DejaVuSans-73"/>
     <use x="361.132812" xlink:href="#DejaVuSans-65"/>
     <use x="422.65625" xlink:href="#DejaVuSans-73"/>
    </g>
   </g>
   <g id="text_13">
    <!-- presbyopic -->
    <defs>
     <path d="M 48.6875 27.296875 
Q 48.6875 37.203125 44.609375 42.84375 
Q 40.53125 48.484375 33.40625 48.484375 
Q 26.265625 48.484375 22.1875 42.84375 
Q 18.109375 37.203125 18.109375 27.296875 
Q 18.109375 17.390625 22.1875 11.75 
Q 26.265625 6.109375 33.40625 6.109375 
Q 40.53125 6.109375 44.609375 11.75 
Q 48.6875 17.390625 48.6875 27.296875 
z
M 18.109375 46.390625 
Q 20.953125 51.265625 25.265625 53.625 
Q 29.59375 56 35.59375 56 
Q 45.5625 56 51.78125 48.09375 
Q 58.015625 40.1875 58.015625 27.296875 
Q 58.015625 14.40625 51.78125 6.484375 
Q 45.5625 -1.421875 35.59375 -1.421875 
Q 29.59375 -1.421875 25.265625 0.953125 
Q 20.953125 3.328125 18.109375 8.203125 
L 18.109375 0 
L 9.078125 0 
L 9.078125 75.984375 
L 18.109375 75.984375 
z
" id="DejaVuSans-62"/>
    </defs>
    <g transform="translate(134.437736 290.417111)rotate(-30)scale(0.1 -0.1)">
     <use xlink:href="#DejaVuSans-70"/>
     <use x="63.476562" xlink:href="#DejaVuSans-72"/>
     <use x="104.558594" xlink:href="#DejaVuSans-65"/>
     <use x="166.082031" xlink:href="#DejaVuSans-73"/>
     <use x="218.181641" xlink:href="#DejaVuSans-62"/>
     <use x="281.658203" xlink:href="#DejaVuSans-79"/>
     <use x="340.837891" xlink:href="#DejaVuSans-6f"/>
     <use x="402.019531" xlink:href="#DejaVuSans-70"/>
     <use x="465.496094" xlink:href="#DejaVuSans-69"/>
     <use x="493.279297" xlink:href="#DejaVuSans-63"/>
    </g>
   </g>
   <g id="patch_16">
    <path d="M 190.165413 296.996882 
Q 174.281737 270.366106 157.825352 242.775119 
" style="fill:none;stroke:#000000;stroke-linecap:round;"/>
    <path d="M 189.834105 292.537035 
L 190.165413 296.996882 
L 186.398751 294.58602 
" style="fill:none;stroke:#000000;stroke-linecap:round;"/>
   </g>
   <g id="text_14">
    <g id="patch_17">
     <path d="M 183.518281 313.923062 
C 185.018281 315.423062 207.941719 315.423062 209.441719 313.923062 
C 210.941719 312.423062 210.941719 302.744937 209.441719 301.244937 
C 207.941719 299.744937 185.018281 299.744937 183.518281 301.244937 
C 182.018281 302.744937 182.018281 312.423062 183.518281 313.923062 
z
" style="fill:#cccccc;stroke:#000000;stroke-linejoin:miter;"/>
    </g>
    <!-- hard -->
    <g transform="translate(185.018281 310.343375)scale(0.1 -0.1)">
     <use xlink:href="#DejaVuSans-68"/>
     <use x="63.378906" xlink:href="#DejaVuSans-61"/>
     <use x="124.658203" xlink:href="#DejaVuSans-72"/>
     <use x="165.755859" xlink:href="#DejaVuSans-64"/>
    </g>
   </g>
   <g id="text_15">
    <!-- young -->
    <g transform="translate(164.569907 284.474923)rotate(-30)scale(0.1 -0.1)">
     <use xlink:href="#DejaVuSans-79"/>
     <use x="59.179688" xlink:href="#DejaVuSans-6f"/>
     <use x="120.361328" xlink:href="#DejaVuSans-75"/>
     <use x="183.740234" xlink:href="#DejaVuSans-6e"/>
     <use x="247.119141" xlink:href="#DejaVuSans-67"/>
    </g>
   </g>
   <g id="patch_18">
    <path d="M 227.14223 230.97646 
Q 202.931656 203.915287 177.975618 176.020876 
" style="fill:none;stroke:#000000;stroke-linecap:round;"/>
    <path d="M 225.965715 226.661856 
L 227.14223 230.97646 
L 222.984638 229.328909 
" style="fill:none;stroke:#000000;stroke-linecap:round;"/>
   </g>
   <g id="text_16">
    <g id="patch_19">
     <path d="M 223.198281 247.395062 
C 224.698281 248.895062 247.621719 248.895062 249.121719 247.395062 
C 250.621719 245.895062 250.621719 236.216938 249.121719 234.716938 
C 247.621719 233.216938 224.698281 233.216938 223.198281 234.716938 
C 221.698281 236.216938 221.698281 245.895062 223.198281 247.395062 
z
" style="fill:#cccccc;stroke:#000000;stroke-linejoin:miter;"/>
    </g>
    <!-- hard -->
    <g transform="translate(224.698281 243.815375)scale(0.1 -0.1)">
     <use xlink:href="#DejaVuSans-68"/>
     <use x="63.378906" xlink:href="#DejaVuSans-61"/>
     <use x="124.658203" xlink:href="#DejaVuSans-72"/>
     <use x="165.755859" xlink:href="#DejaVuSans-64"/>
    </g>
   </g>
   <g id="text_17">
    <!-- myope -->
    <g transform="translate(192.936147 218.751611)rotate(-30)scale(0.1 -0.1)">
     <use xlink:href="#DejaVuSans-6d"/>
     <use x="97.412109" xlink:href="#DejaVuSans-79"/>
     <use x="156.591797" xlink:href="#DejaVuSans-6f"/>
     <use x="217.773438" xlink:href="#DejaVuSans-70"/>
     <use x="281.25" xlink:href="#DejaVuSans-65"/>
    </g>
   </g>
   <g id="text_18">
    <!-- no -->
    <g transform="translate(291.665973 146.767751)rotate(-30)scale(0.1 -0.1)">
     <use xlink:href="#DejaVuSans-6e"/>
     <use x="63.378906" xlink:href="#DejaVuSans-6f"/>
    </g>
   </g>
   <g id="patch_20">
    <path d="M 324.107585 165.095028 
Q 291.249328 137.549739 257.534272 109.28619 
" style="fill:none;stroke:#000000;stroke-linecap:round;"/>
    <path d="M 322.327072 160.992617 
L 324.107585 165.095028 
L 319.757349 164.057992 
" style="fill:none;stroke:#000000;stroke-linecap:round;"/>
   </g>
   <g id="text_19">
    <g id="patch_21">
     <path d="M 323.795156 181.617063 
L 324.545156 182.367063 
L 325.317645 181.617063 
L 326.090134 180.867063 
L 326.862623 181.617063 
L 327.635112 182.367063 
L 328.4076 181.617063 
L 329.180089 180.867063 
L 329.952578 181.617063 
L 330.725067 182.367063 
L 331.497556 181.617063 
L 332.270045 180.867063 
L 333.042533 181.617063 
L 333.815022 182.367063 
L 334.587511 181.617063 
L 335.36 180.867063 
L 336.132489 181.617063 
L 336.904978 182.367063 
L 337.677467 181.617063 
L 338.449955 180.867063 
L 339.222444 181.617063 
L 339.994933 182.367063 
L 340.767422 181.617063 
L 341.539911 180.867063 
L 342.3124 181.617063 
L 343.084888 182.367063 
L 343.857377 181.617063 
L 344.629866 180.867063 
L 345.402355 181.617063 
L 346.174844 182.367063 
L 346.924844 181.617063 
L 347.674844 180.867063 
L 346.924844 180.07468 
L 346.174844 179.282297 
L 346.924844 178.489914 
L 347.674844 177.697531 
L 346.924844 176.905148 
L 346.174844 176.112766 
L 346.924844 175.320383 
L 347.674844 174.528 
L 346.924844 173.735617 
L 346.174844 172.943234 
L 346.924844 172.150852 
L 347.674844 171.358469 
L 346.924844 170.566086 
L 346.174844 169.773703 
L 346.924844 168.98132 
L 347.674844 168.188938 
L 346.924844 167.438938 
L 346.174844 166.688938 
L 345.402355 167.438938 
L 344.629866 168.188938 
L 343.857377 167.438938 
L 343.084888 166.688938 
L 342.3124 167.438938 
L 341.539911 168.188938 
L 340.767422 167.438938 
L 339.994933 166.688938 
L 339.222444 167.438938 
L 338.449955 168.188938 
L 337.677467 167.438938 
L 336.904978 166.688938 
L 336.132489 167.438938 
L 335.36 168.188938 
L 334.587511 167.438938 
L 333.815022 166.688938 
L 333.042533 167.438938 
L 332.270045 168.188938 
L 331.497556 167.438938 
L 330.725067 166.688938 
L 329.952578 167.438938 
L 329.180089 168.188938 
L 328.4076 167.438938 
L 327.635112 166.688938 
L 326.862623 167.438938 
L 326.090134 168.188938 
L 325.317645 167.438938 
L 324.545156 166.688938 
L 323.795156 167.438938 
L 323.045156 168.188938 
L 323.795156 168.98132 
L 324.545156 169.773703 
L 323.795156 170.566086 
L 323.045156 171.358469 
L 323.795156 172.150852 
L 324.545156 172.943234 
L 323.795156 173.735617 
L 323.045156 174.528 
L 323.795156 175.320383 
L 324.545156 176.112766 
L 323.795156 176.905148 
L 323.045156 177.697531 
L 323.795156 178.489914 
L 324.545156 179.282297 
L 323.795156 180.07468 
L 323.045156 180.867063 
z
" style="fill:#cccccc;stroke:#000000;stroke-linejoin:miter;"/>
    </g>
    <!-- age -->
    <g transform="translate(326.045156 177.287375)scale(0.1 -0.1)">
     <use xlink:href="#DejaVuSans-61"/>
     <use x="61.279297" xlink:href="#DejaVuSans-67"/>
     <use x="124.755859" xlink:href="#DejaVuSans-65"/>
    </g>
   </g>
   <g id="patch_22">
    <path d="M 284.779872 231.06353 
Q 309.031513 203.956454 334.028617 176.016142 
" style="fill:none;stroke:#000000;stroke-linecap:round;"/>
    <path d="M 288.937465 229.415979 
L 284.779872 231.06353 
L 285.956387 226.748925 
" style="fill:none;stroke:#000000;stroke-linecap:round;"/>
   </g>
   <g id="text_20">
    <g id="patch_23">
     <path d="M 264.956406 247.395062 
C 266.456406 248.895062 285.223594 248.895062 286.723594 247.395062 
C 288.223594 245.895062 288.223594 236.216938 286.723594 234.716938 
C 285.223594 233.216938 266.456406 233.216938 264.956406 234.716938 
C 263.456406 236.216938 263.456406 245.895062 264.956406 247.395062 
z
" style="fill:#cccccc;stroke:#000000;stroke-linejoin:miter;"/>
    </g>
    <!-- soft -->
    <defs>
     <path d="M 37.109375 75.984375 
L 37.109375 68.5 
L 28.515625 68.5 
Q 23.6875 68.5 21.796875 66.546875 
Q 19.921875 64.59375 19.921875 59.515625 
L 19.921875 54.6875 
L 34.71875 54.6875 
L 34.71875 47.703125 
L 19.921875 47.703125 
L 19.921875 0 
L 10.890625 0 
L 10.890625 47.703125 
L 2.296875 47.703125 
L 2.296875 54.6875 
L 10.890625 54.6875 
L 10.890625 58.5 
Q 10.890625 67.625 15.140625 71.796875 
Q 19.390625 75.984375 28.609375 75.984375 
z
" id="DejaVuSans-66"/>
    </defs>
    <g transform="translate(266.456406 243.815375)scale(0.1 -0.1)">
     <use xlink:href="#DejaVuSans-73"/>
     <use x="52.099609" xlink:href="#DejaVuSans-6f"/>
     <use x="113.28125" xlink:href="#DejaVuSans-66"/>
     <use x="148.470703" xlink:href="#DejaVuSans-74"/>
    </g>
   </g>
   <g id="text_21">
    <!-- pre -->
    <g transform="translate(299.787617 214.334033)rotate(-30)scale(0.1 -0.1)">
     <use xlink:href="#DejaVuSans-70"/>
     <use x="63.476562" xlink:href="#DejaVuSans-72"/>
     <use x="104.558594" xlink:href="#DejaVuSans-65"/>
    </g>
   </g>
   <g id="text_22">
    <!-- presbyopic -->
    <g transform="translate(312.997736 223.889111)rotate(-30)scale(0.1 -0.1)">
     <use xlink:href="#DejaVuSans-70"/>
     <use x="63.476562" xlink:href="#DejaVuSans-72"/>
     <use x="104.558594" xlink:href="#DejaVuSans-65"/>
     <use x="166.082031" xlink:href="#DejaVuSans-73"/>
     <use x="218.181641" xlink:href="#DejaVuSans-62"/>
     <use x="281.658203" xlink:href="#DejaVuSans-79"/>
     <use x="340.837891" xlink:href="#DejaVuSans-6f"/>
     <use x="402.019531" xlink:href="#DejaVuSans-70"/>
     <use x="465.496094" xlink:href="#DejaVuSans-69"/>
     <use x="493.279297" xlink:href="#DejaVuSans-63"/>
    </g>
   </g>
   <g id="patch_24">
    <path d="M 335.36 229.391064 
Q 335.36 203.517967 335.36 176.526837 
" style="fill:none;stroke:#000000;stroke-linecap:round;"/>
    <path d="M 337.36 225.391064 
L 335.36 229.391064 
L 333.36 225.391064 
" style="fill:none;stroke:#000000;stroke-linecap:round;"/>
   </g>
   <g id="text_23">
    <g id="patch_25">
     <path d="M 310.8725 248.145062 
L 311.6225 248.895062 
L 312.364297 248.145062 
L 313.106094 247.395062 
L 313.847891 248.145062 
L 314.589688 248.895062 
L 315.331484 248.145062 
L 316.073281 247.395062 
L 316.815078 248.145062 
L 317.556875 248.895062 
L 318.298672 248.145062 
L 319.040469 247.395062 
L 319.782266 248.145062 
L 320.524063 248.895062 
L 321.265859 248.145062 
L 322.007656 247.395062 
L 322.749453 248.145062 
L 323.49125 248.895062 
L 324.233047 248.145062 
L 324.974844 247.395062 
L 325.716641 248.145062 
L 326.458438 248.895062 
L 327.200234 248.145062 
L 327.942031 247.395062 
L 328.683828 248.145062 
L 329.425625 248.895062 
L 330.167422 248.145062 
L 330.909219 247.395062 
L 331.651016 248.145062 
L 332.392812 248.895062 
L 333.134609 248.145062 
L 333.876406 247.395062 
L 334.618203 248.145062 
L 335.36 248.895062 
L 336.101797 248.145062 
L 336.843594 247.395062 
L 337.585391 248.145062 
L 338.327187 248.895062 
L 339.068984 248.145062 
L 339.810781 247.395062 
L 340.552578 248.145062 
L 341.294375 248.895062 
L 342.036172 248.145062 
L 342.777969 247.395062 
L 343.519766 248.145062 
L 344.261563 248.895062 
L 345.003359 248.145062 
L 345.745156 247.395062 
L 346.486953 248.145062 
L 347.22875 248.895062 
L 347.970547 248.145062 
L 348.712344 247.395062 
L 349.454141 248.145062 
L 350.195938 248.895062 
L 350.937734 248.145062 
L 351.679531 247.395062 
L 352.421328 248.145062 
L 353.163125 248.895062 
L 353.904922 248.145062 
L 354.646719 247.395062 
L 355.388516 248.145062 
L 356.130313 248.895062 
L 356.872109 248.145062 
L 357.613906 247.395062 
L 358.355703 248.145062 
L 359.0975 248.895062 
L 359.8475 248.145062 
L 360.5975 247.395062 
L 359.8475 246.60268 
L 359.0975 245.810297 
L 359.8475 245.017914 
L 360.5975 244.225531 
L 359.8475 243.433148 
L 359.0975 242.640766 
L 359.8475 241.848383 
L 360.5975 241.056 
L 359.8475 240.263617 
L 359.0975 239.471234 
L 359.8475 238.678852 
L 360.5975 237.886469 
L 359.8475 237.094086 
L 359.0975 236.301703 
L 359.8475 235.50932 
L 360.5975 234.716938 
L 359.8475 233.966938 
L 359.0975 233.216938 
L 358.355703 233.966938 
L 357.613906 234.716938 
L 356.872109 233.966938 
L 356.130313 233.216938 
L 355.388516 233.966938 
L 354.646719 234.716938 
L 353.904922 233.966938 
L 353.163125 233.216938 
L 352.421328 233.966938 
L 351.679531 234.716938 
L 350.937734 233.966938 
L 350.195938 233.216938 
L 349.454141 233.966938 
L 348.712344 234.716938 
L 347.970547 233.966938 
L 347.22875 233.216938 
L 346.486953 233.966938 
L 345.745156 234.716938 
L 345.003359 233.966938 
L 344.261563 233.216938 
L 343.519766 233.966938 
L 342.777969 234.716938 
L 342.036172 233.966938 
L 341.294375 233.216938 
L 340.552578 233.966938 
L 339.810781 234.716938 
L 339.068984 233.966938 
L 338.327187 233.216938 
L 337.585391 233.966938 
L 336.843594 234.716938 
L 336.101797 233.966938 
L 335.36 233.216938 
L 334.618203 233.966938 
L 333.876406 234.716938 
L 333.134609 233.966938 
L 332.392812 233.216938 
L 331.651016 233.966938 
L 330.909219 234.716938 
L 330.167422 233.966938 
L 329.425625 233.216938 
L 328.683828 233.966938 
L 327.942031 234.716938 
L 327.200234 233.966938 
L 326.458438 233.216938 
L 325.716641 233.966938 
L 324.974844 234.716938 
L 324.233047 233.966938 
L 323.49125 233.216938 
L 322.749453 233.966938 
L 322.007656 234.716938 
L 321.265859 233.966938 
L 320.524063 233.216938 
L 319.782266 233.966938 
L 319.040469 234.716938 
L 318.298672 233.966938 
L 317.556875 233.216938 
L 316.815078 233.966938 
L 316.073281 234.716938 
L 315.331484 233.966938 
L 314.589688 233.216938 
L 313.847891 233.966938 
L 313.106094 234.716938 
L 312.364297 233.966938 
L 311.6225 233.216938 
L 310.8725 233.966938 
L 310.1225 234.716938 
L 310.8725 235.50932 
L 311.6225 236.301703 
L 310.8725 237.094086 
L 310.1225 237.886469 
L 310.8725 238.678852 
L 311.6225 239.471234 
L 310.8725 240.263617 
L 310.1225 241.056 
L 310.8725 241.848383 
L 311.6225 242.640766 
L 310.8725 243.433148 
L 310.1225 244.225531 
L 310.8725 245.017914 
L 311.6225 245.810297 
L 310.8725 246.60268 
L 310.1225 247.395062 
z
" style="fill:#cccccc;stroke:#000000;stroke-linejoin:miter;"/>
    </g>
    <!-- prescript -->
    <g transform="translate(313.1225 243.815375)scale(0.1 -0.1)">
     <use xlink:href="#DejaVuSans-70"/>
     <use x="63.476562" xlink:href="#DejaVuSans-72"/>
     <use x="104.558594" xlink:href="#DejaVuSans-65"/>
     <use x="166.082031" xlink:href="#DejaVuSans-73"/>
     <use x="218.181641" xlink:href="#DejaVuSans-63"/>
     <use x="273.162109" xlink:href="#DejaVuSans-72"/>
     <use x="314.275391" xlink:href="#DejaVuSans-69"/>
     <use x="342.058594" xlink:href="#DejaVuSans-70"/>
     <use x="405.535156" xlink:href="#DejaVuSans-74"/>
    </g>
   </g>
   <g id="patch_26">
    <path d="M 318.770417 296.684618 
Q 326.620089 270.362894 334.789277 242.969764 
" style="fill:none;stroke:#000000;stroke-linecap:round;"/>
    <path d="M 321.830137 293.423006 
L 318.770417 296.684618 
L 317.996959 292.279875 
" style="fill:none;stroke:#000000;stroke-linecap:round;"/>
   </g>
   <g id="text_24">
    <g id="patch_27">
     <path d="M 304.636406 313.923062 
C 306.136406 315.423062 324.903594 315.423062 326.403594 313.923062 
C 327.903594 312.423062 327.903594 302.744937 326.403594 301.244937 
C 324.903594 299.744937 306.136406 299.744937 304.636406 301.244937 
C 303.136406 302.744937 303.136406 312.423062 304.636406 313.923062 
z
" style="fill:#cccccc;stroke:#000000;stroke-linejoin:miter;"/>
    </g>
    <!-- soft -->
    <g transform="translate(306.136406 310.343375)scale(0.1 -0.1)">
     <use xlink:href="#DejaVuSans-73"/>
     <use x="52.099609" xlink:href="#DejaVuSans-6f"/>
     <use x="113.28125" xlink:href="#DejaVuSans-66"/>
     <use x="148.470703" xlink:href="#DejaVuSans-74"/>
    </g>
   </g>
   <g id="text_25">
    <!-- hyper -->
    <g transform="translate(314.319152 283.926876)rotate(-30)scale(0.1 -0.1)">
     <use xlink:href="#DejaVuSans-68"/>
     <use x="63.378906" xlink:href="#DejaVuSans-79"/>
     <use x="122.558594" xlink:href="#DejaVuSans-70"/>
     <use x="186.035156" xlink:href="#DejaVuSans-65"/>
     <use x="247.558594" xlink:href="#DejaVuSans-72"/>
    </g>
   </g>
   <g id="patch_28">
    <path d="M 351.949583 296.684618 
Q 344.099911 270.362894 335.930723 242.969764 
" style="fill:none;stroke:#000000;stroke-linecap:round;"/>
    <path d="M 352.723041 292.279875 
L 351.949583 296.684618 
L 348.889863 293.423006 
" style="fill:none;stroke:#000000;stroke-linecap:round;"/>
   </g>
   <g id="text_26">
    <g id="patch_29">
     <path d="M 329.9625 313.923062 
C 331.4625 315.423062 378.9375 315.423062 380.4375 313.923062 
C 381.9375 312.423062 381.9375 302.744937 380.4375 301.244937 
C 378.9375 299.744937 331.4625 299.744937 329.9625 301.244937 
C 328.4625 302.744937 328.4625 312.423062 329.9625 313.923062 
z
" style="fill:#cccccc;stroke:#000000;stroke-linejoin:miter;"/>
    </g>
    <!-- no lenses -->
    <g transform="translate(331.4625 310.343375)scale(0.1 -0.1)">
     <use xlink:href="#DejaVuSans-6e"/>
     <use x="63.378906" xlink:href="#DejaVuSans-6f"/>
     <use x="124.560547" xlink:href="#DejaVuSans-20"/>
     <use x="156.347656" xlink:href="#DejaVuSans-6c"/>
     <use x="184.130859" xlink:href="#DejaVuSans-65"/>
     <use x="245.654297" xlink:href="#DejaVuSans-6e"/>
     <use x="309.033203" xlink:href="#DejaVuSans-73"/>
     <use x="361.132812" xlink:href="#DejaVuSans-65"/>
     <use x="422.65625" xlink:href="#DejaVuSans-73"/>
    </g>
   </g>
   <g id="text_27">
    <!-- myope -->
    <g transform="translate(331.816147 285.279611)rotate(-30)scale(0.1 -0.1)">
     <use xlink:href="#DejaVuSans-6d"/>
     <use x="97.412109" xlink:href="#DejaVuSans-79"/>
     <use x="156.591797" xlink:href="#DejaVuSans-6f"/>
     <use x="217.773438" xlink:href="#DejaVuSans-70"/>
     <use x="281.25" xlink:href="#DejaVuSans-65"/>
    </g>
   </g>
   <g id="patch_30">
    <path d="M 385.940128 231.06353 
Q 361.688487 203.956454 336.691383 176.016142 
" style="fill:none;stroke:#000000;stroke-linecap:round;"/>
    <path d="M 384.763613 226.748925 
L 385.940128 231.06353 
L 381.782535 229.415979 
" style="fill:none;stroke:#000000;stroke-linecap:round;"/>
   </g>
   <g id="text_28">
    <g id="patch_31">
     <path d="M 383.996406 247.395062 
C 385.496406 248.895062 404.263594 248.895062 405.763594 247.395062 
C 407.263594 245.895062 407.263594 236.216938 405.763594 234.716938 
C 404.263594 233.216938 385.496406 233.216938 383.996406 234.716938 
C 382.496406 236.216938 382.496406 245.895062 383.996406 247.395062 
z
" style="fill:#cccccc;stroke:#000000;stroke-linejoin:miter;"/>
    </g>
    <!-- soft -->
    <g transform="translate(385.496406 243.815375)scale(0.1 -0.1)">
     <use xlink:href="#DejaVuSans-73"/>
     <use x="52.099609" xlink:href="#DejaVuSans-6f"/>
     <use x="113.28125" xlink:href="#DejaVuSans-66"/>
     <use x="148.470703" xlink:href="#DejaVuSans-74"/>
    </g>
   </g>
   <g id="text_29">
    <!-- young -->
    <g transform="translate(353.049907 217.946923)rotate(-30)scale(0.1 -0.1)">
     <use xlink:href="#DejaVuSans-79"/>
     <use x="59.179688" xlink:href="#DejaVuSans-6f"/>
     <use x="120.361328" xlink:href="#DejaVuSans-75"/>
     <use x="183.740234" xlink:href="#DejaVuSans-6e"/>
     <use x="247.119141" xlink:href="#DejaVuSans-67"/>
    </g>
   </g>
  </g>
 </g>
</svg>
